<svg xmlns="http://www.w3.org/2000/svg" viewBox="0 0 100 100"><defs><style>.cls-1{fill:#777;}.cls-2{fill:#fff;fill-rule:evenodd;}</style></defs><title>Asset 4</title><g id="Layer_2" data-name="Layer 2"><g id="Layer_1-2" data-name="Layer 1"><circle class="cls-1" cx="50" cy="50" r="50"/><path class="cls-2" d="M68.22,15.91a8.71,8.71,0,0,0-13.28,1.33c-2.13,2.13-2.39,8.23-.53,10.62,2.13,3.72,6.91,4.78,10.62,3.72,7.17-2.13,8.5-10.62,3.19-15.67"/><path class="cls-2" d="M32.89,58.41a4.36,4.36,0,0,0,4.25-4.25,4.14,4.14,0,0,0-4-4.25c-2.39,0-4.52,1.86-4.52,4a4,4,0,0,0,4.25,4.51"/><path class="cls-2" d="M29.17,88.42V71.16A14,14,0,0,1,35.55,60c6.37-4,8.76-2.92,8.76-2.92v8a7.69,7.69,0,0,0-5.84,2.39c-2.39,2.66-1.86,7.17-1.86,9.56v6.91H47.5v4H29.17Z"/><path class="cls-2" d="M55.2,88.69m0,0h13V52.3S67.16,26.8,37.67,26.8V40.08s16.73,0,16.73,12V88.42H68.48"/></g></g></svg>